<?xml version="1.0" encoding="UTF-8"?>
<svg width="20" height="20" viewBox="0 0 24 24" fill="#FF7D45" xmlns="http://www.w3.org/2000/svg">
    <path d="M7 3C4.79086 3 3 4.79086 3 7V8C3 8.55228 3.44772 9 4 9C4.55228 9 5 8.55228 5 8V7C5 5.89543 5.89543 5 7 5H8C8.55228 5 9 4.55228 9 4C9 3.44772 8.55228 3 8 3H7Z"/>
    <path d="M16 3C16.5523 3 17 3.44772 17 4C17 4.55228 16.5523 5 16 5H15C13.8954 5 13 5.89543 13 7V8C13 8.55228 12.5523 9 12 9C11.4477 9 11 8.55228 11 8V7C11 4.79086 12.7909 3 15 3H16Z"/>
    <path d="M17 20C16.5523 20 16 19.5523 16 19V18C16 17.4477 16.4477 17 17 17C17.5523 17 18 17.4477 18 18V19C18 19.5523 17.5523 20 17 20Z"/>
    <path d="M7 20C7.55228 20 8 19.5523 8 19V18C8 17.4477 8.44772 17 9 17C9.55228 17 10 17.4477 10 18V19C10 21.2091 8.20914 23 6 23H5C4.44772 23 4 22.5523 4 22C4 21.4477 4.44772 21 5 21H6C7.10457 21 8 20.1046 8 19V19C8 19.5523 7.55228 20 7 20Z"/>
    <path d="M4 13C3.44772 13 3 12.5523 3 12C3 11.4477 3.44772 11 4 11H20C20.5523 11 21 11.4477 21 12C21 12.5523 20.5523 13 20 13H4Z"/>
</svg> 