<svg width="48" height="48" viewBox="0 0 48 48" fill="none" xmlns="http://www.w3.org/2000/svg">
  <circle cx="24" cy="24" r="24" fill="#F8F9FA"/>
  <path d="M24 12C20.6863 12 18 14.6863 18 18C18 21.3137 20.6863 24 24 24C27.3137 24 30 21.3137 30 18C30 14.6863 27.3137 12 24 12Z" fill="#B2BEC3"/>
  <path d="M16 28C16 25.7909 17.7909 24 20 24H28C30.2091 24 32 25.7909 32 28V32H16V28Z" fill="#B2BEC3"/>
  <path d="M12 36C12 33.7909 13.7909 32 16 32H32C34.2091 32 36 33.7909 36 36V36H12V36Z" fill="#B2BEC3"/>
</svg> 