<?xml version="1.0" standalone="no"?><!DOCTYPE svg PUBLIC "-//W3C//DTD SVG 1.1//EN" "http://www.w3.org/Graphics/SVG/1.1/DTD/svg11.dtd"><svg t="1735443421476" class="icon" viewBox="0 0 1024 1024" version="1.1" xmlns="http://www.w3.org/2000/svg" p-id="9526" xmlns:xlink="http://www.w3.org/1999/xlink" width="200" height="200"><path d="M580.55 957.86H440.44a58.74 58.74 0 0 1-58.68-58.68v-76.56a329.58 329.58 0 0 1-63.27-35l-65 37.5a58.72 58.72 0 0 1-80.16-21.47l-70-121.34a58.72 58.72 0 0 1 21.47-80.16l56.44-32.58a335.21 335.21 0 0 1-4.52-55q0-14.89 1.32-29.77l-53.24-30.68A58.72 58.72 0 0 1 103.33 374l70.05-121.33a58.71 58.71 0 0 1 80.16-21.48L298.35 257a334.29 334.29 0 0 1 83.41-50.32v-49.56a58.74 58.74 0 0 1 58.68-58.68h140.11a58.75 58.75 0 0 1 58.68 58.68v49.66a334.54 334.54 0 0 1 83.3 50.3l44.92-25.93a58.71 58.71 0 0 1 80.16 21.48l70 121.33a58.71 58.71 0 0 1-21.48 80.16L842.76 485c0.88 9.87 1.32 19.78 1.32 29.67a335.18 335.18 0 0 1-4.51 54.87l56.61 32.68a58.71 58.71 0 0 1 21.48 80.16l-70 121.33a58.74 58.74 0 0 1-80.16 21.48l-65.07-37.56a329.34 329.34 0 0 1-63.15 34.94v76.65a58.75 58.75 0 0 1-58.73 58.64z m-102.79-96h65.47V752.8l34.44-10.15a235.49 235.49 0 0 0 89-49l25.85-22.59 90.57 52.29 32.73-56.69-87.27-50.39 10.32-36a239.42 239.42 0 0 0 4.74-111.47l-6.57-33.63 78.78-45.49L783.13 333l-75.64 43.66-26-27a238 238 0 0 0-103.77-63l-34.44-10.14v-82h-65.52v82l-34.47 10.13a238 238 0 0 0-103.88 63l-26.05 27-75.5-43.65-32.74 56.69L283.75 435l-6.59 33.65a239.73 239.73 0 0 0 4.74 111.63l10.34 36.05-87.12 50.3 32.74 56.69 90.43-52.21 25.85 22.58a235.57 235.57 0 0 0 89.15 49l34.47 10.13z m370.41-176.55z" fill="#2C77E5" p-id="9527"></path><path d="M511.32 655.3c-78.61 0-142.57-64-142.57-142.57s64-142.58 142.57-142.58 142.58 64 142.58 142.58S589.94 655.3 511.32 655.3z m0-189.15a46.58 46.58 0 1 0 46.58 46.58 46.63 46.63 0 0 0-46.58-46.58z" fill="#1AD8E2" p-id="9528"></path></svg>