<?xml version="1.0" standalone="no"?><!DOCTYPE svg PUBLIC "-//W3C//DTD SVG 1.1//EN" "http://www.w3.org/Graphics/SVG/1.1/DTD/svg11.dtd"><svg t="1735548002595" class="icon" viewBox="0 0 1024 1024" version="1.1" xmlns="http://www.w3.org/2000/svg" p-id="4713" xmlns:xlink="http://www.w3.org/1999/xlink" width="200" height="200"><path d="M512 512m-447.8 0a447.8 447.8 0 1 0 895.6 0 447.8 447.8 0 1 0-895.6 0Z" fill="#41CD8C" p-id="4714"></path><path d="M747 453.2V306.3c0-16.2-13.1-29.4-29.4-29.4H580.5v39.2h112.7c8.2 0 14.6 6.6 14.6 14.6v122.5H747zM747 570.7v146.9c0 16.3-13.2 29.4-29.4 29.4H580.5v-39.2h112.7c8.1 0 14.6-6.5 14.6-14.6V570.7H747zM276.9 453.2V306.3c0-16.3 13.2-29.4 29.4-29.4h137.1v39.2H330.7c-8.1 0-14.6 6.5-14.6 14.6v122.5h-39.2zM276.9 570.7v146.9c0 16.2 13.1 29.4 29.4 29.4h137.1v-39.2H330.7c-8.2 0-14.6-6.6-14.6-14.6V570.7h-39.2z" fill="#FCFCFC" p-id="4715"></path><path d="M391.6 391.6h252.3v252.3H391.6z" fill="#A0DEBD" p-id="4716"></path><path d="M276.9 483.6H747v44.8H276.9z" fill="#FAFCFB" p-id="4717"></path></svg>