<?xml version="1.0" standalone="no"?><!DOCTYPE svg PUBLIC "-//W3C//DTD SVG 1.1//EN" "http://www.w3.org/Graphics/SVG/1.1/DTD/svg11.dtd"><svg t="1734758813755" class="icon" viewBox="0 0 1024 1024" version="1.1" xmlns="http://www.w3.org/2000/svg" p-id="7475" xmlns:xlink="http://www.w3.org/1999/xlink" width="200" height="200"><path d="M512 133.12c208.91648 0 378.88 169.96352 378.88 378.88s-169.96352 378.88-378.88 378.88-378.88-169.96352-378.88-378.88 169.96352-378.88 378.88-378.88m0-71.68c-248.83712 0-450.56 201.72288-450.56 450.56s201.72288 450.56 450.56 450.56 450.56-201.72288 450.56-450.56-201.72288-450.56-450.56-450.56z" fill="#666666" p-id="7476"></path><path d="M732.16 476.16h-184.32V291.84a35.84 35.84 0 1 0-71.68 0v184.32H291.84a35.84 35.84 0 1 0 0 71.68h184.32v184.32a35.84 35.84 0 1 0 71.68 0v-184.32h184.32a35.84 35.84 0 1 0 0-71.68z" fill="#666666" p-id="7477"></path></svg>