<?xml version="1.0" standalone="no"?><!DOCTYPE svg PUBLIC "-//W3C//DTD SVG 1.1//EN" "http://www.w3.org/Graphics/SVG/1.1/DTD/svg11.dtd"><svg t="1734753422636" class="icon" viewBox="0 0 1024 1024" version="1.1" xmlns="http://www.w3.org/2000/svg" p-id="4594" xmlns:xlink="http://www.w3.org/1999/xlink" width="200" height="200"><path d="M512 512m-512 0a512 512 0 1 0 1024 0 512 512 0 1 0-1024 0Z" fill="#31B6AB" p-id="4595"></path><path d="M603.2896 581.12s-21.333333-6.075733-27.426133-8.106667c-11.178667-7.1168-18.295467-21.333333-18.295467-35.566933 0-15.240533 13.2096-28.450133 21.333333-38.6048 21.333333-25.412267 32.512-59.9552 32.512-98.56 0-80.264533-56.900267-144.2816-127.010133-144.2816-70.0928 0-126.993067 66.048-126.993067 146.312533 0 38.6048 13.2096 73.147733 32.512 98.56 19.3024 25.3952 21.333333 23.364267 21.333334 38.6048 0 14.216533-7.1168 27.426133-18.295467 35.566934-7.099733 4.0448-12.014933 6.5024-14.762667 7.355733-3.584 1.1264-10.171733 3.2768-14.557866 4.744533-54.869333 18.295467-97.672533 43.776-124.091734 80.349867h1.024a55.842133 55.842133 0 0 0-10.171733 32.512c0 34.542933 28.450133 62.993067 64 62.993067h377.975467c37.597867 0 66.048-27.426133 66.048-62.976 0-14.2336-6.0928-27.4432-13.2096-38.621867-26.4192-35.566933-69.085867-62.993067-121.924267-80.264533z" fill="#FFFFFF" p-id="4596"></path><path d="M484.4032 545.2288c55.9104 0 86.357333-36.232533 94.498133-46.3872 21.333333-25.412267 32.512-59.9552 32.512-98.56 0-80.264533-56.900267-144.2816-127.010133-144.2816-70.0928 0-126.993067 66.048-126.993067 146.312533 0 38.6048 13.2096 73.147733 32.512 98.56 19.3024 25.3952 38.570667 44.373333 94.481067 44.373334z" fill="#FFFFFF" p-id="4597"></path><path d="M665.6 460.8m17.066667 0l119.466666 0q17.066667 0 17.066667 17.066667l0 17.066666q0 17.066667-17.066667 17.066667l-119.466666 0q-17.066667 0-17.066667-17.066667l0-17.066666q0-17.066667 17.066667-17.066667Z" fill="#FFFFFF" p-id="4598"></path><path d="M716.8 546.133333v-119.466666a17.066667 17.066667 0 0 1 17.066667-17.066667h17.066666a17.066667 17.066667 0 0 1 17.066667 17.066667v119.466666a17.066667 17.066667 0 0 1-17.066667 17.066667h-17.066666a17.066667 17.066667 0 0 1-17.066667-17.066667z" fill="#FFFFFF" p-id="4599"></path></svg>