<?xml version="1.0" encoding="UTF-8"?>
<svg width="24" height="24" viewBox="0 0 24 24" fill="none" xmlns="http://www.w3.org/2000/svg">
  <path fill-rule="evenodd" clip-rule="evenodd" d="M15 7C15 9.20914 13.2091 11 11 11C8.79086 11 7 9.20914 7 7C7 4.79086 8.79086 3 11 3C13.2091 3 15 4.79086 15 7ZM11 9C12.1046 9 13 8.10457 13 7C13 5.89543 12.1046 5 11 5C9.89543 5 9 5.89543 9 7C9 8.10457 9.89543 9 11 9Z" fill="white"/>
  <path d="M4 21V19C4 16.7909 5.79086 15 8 15H14C16.2091 15 18 16.7909 18 19V21H16V19C16 17.8954 15.1046 17 14 17H8C6.89543 17 6 17.8954 6 19V21H4Z" fill="white"/>
  <path fill-rule="evenodd" clip-rule="evenodd" d="M18.5 8.5C18.5 10.433 16.933 12 15 12C13.067 12 11.5 10.433 11.5 8.5C11.5 6.567 13.067 5 15 5C16.933 5 18.5 6.567 18.5 8.5ZM15 10C15.8284 10 16.5 9.32843 16.5 8.5C16.5 7.67157 15.8284 7 15 7C14.1716 7 13.5 7.67157 13.5 8.5C13.5 9.32843 14.1716 10 15 10Z" fill="white"/>
  <path d="M20 21V19C20 16.7909 18.2091 15 16 15L18 17V19L20 21Z" fill="white"/>
</svg> 