<?xml version="1.0" encoding="UTF-8"?>
<svg width="24" height="24" viewBox="0 0 24 24" fill="none" xmlns="http://www.w3.org/2000/svg">
  <path d="M13 12C13 12.5523 12.5523 13 12 13C11.4477 13 11 12.5523 11 12C11 11.4477 11.4477 11 12 11C12.5523 11 13 11.4477 13 12Z" fill="white"/>
  <path fill-rule="evenodd" clip-rule="evenodd" d="M8 7C8 4.79086 9.79086 3 12 3C14.2091 3 16 4.79086 16 7C16 9.20914 14.2091 11 12 11C9.79086 11 8 9.20914 8 7ZM12 5C10.8954 5 10 5.89543 10 7C10 8.10457 10.8954 9 12 9C13.1046 9 14 8.10457 14 7C14 5.89543 13.1046 5 12 5Z" fill="white"/>
  <path fill-rule="evenodd" clip-rule="evenodd" d="M12 13C9.01207 13 6.59459 14.8655 5.9772 17.6077C5.87807 18.0154 5.46972 18.2707 5.06194 18.1716C4.65415 18.0725 4.39883 17.6641 4.49796 17.2564C5.30445 13.8639 8.38258 11.5 12 11.5C15.6174 11.5 18.6955 13.8639 19.502 17.2564C19.6012 17.6641 19.3459 18.0725 18.9381 18.1716C18.5303 18.2707 18.1219 18.0154 18.0228 17.6077C17.4054 14.8655 14.9879 13 12 13Z" fill="white"/>
  <path fill-rule="evenodd" clip-rule="evenodd" d="M18.5 8.5C18.5 8.22386 18.7239 8 19 8H21C21.2761 8 21.5 8.22386 21.5 8.5C21.5 8.77614 21.2761 9 21 9H19C18.7239 9 18.5 8.77614 18.5 8.5Z" fill="white"/>
  <path fill-rule="evenodd" clip-rule="evenodd" d="M20 7C20.2761 7 20.5 7.22386 20.5 7.5V9.5C20.5 9.77614 20.2761 10 20 10C19.7239 10 19.5 9.77614 19.5 9.5V7.5C19.5 7.22386 19.7239 7 20 7Z" fill="white"/>
</svg> 