<?xml version="1.0" encoding="UTF-8"?>
<svg width="64" height="64" viewBox="0 0 64 64" fill="none" xmlns="http://www.w3.org/2000/svg">
  <path d="M32 8C18.7452 8 8 18.7452 8 32C8 45.2548 18.7452 56 32 56C45.2548 56 56 45.2548 56 32C56 18.7452 45.2548 8 32 8ZM32 52C20.9543 52 12 43.0457 12 32C12 20.9543 20.9543 12 32 12C43.0457 12 52 20.9543 52 32C52 43.0457 43.0457 52 32 52Z" fill="#DFE6E9"/>
  <path d="M32 20C30.3431 20 29 21.3431 29 23V33C29 34.6569 30.3431 36 32 36C33.6569 36 35 34.6569 35 33V23C35 21.3431 33.6569 20 32 20Z" fill="#DFE6E9"/>
  <path d="M32 40C30.3431 40 29 41.3431 29 43C29 44.6569 30.3431 46 32 46C33.6569 46 35 44.6569 35 43C35 41.3431 33.6569 40 32 40Z" fill="#DFE6E9"/>
</svg> 