<?xml version="1.0" encoding="UTF-8"?>
<svg t="1743952738812" class="icon" viewBox="0 0 1024 1024" version="1.1" xmlns="http://www.w3.org/2000/svg" p-id="2580" width="200" height="200"><path d="M173.3 370.4C112.9 370.4 64 419.3 64 479.7 64 540 112.9 589 173.3 589s109.3-48.9 109.3-109.3-48.9-109.3-109.3-109.3z" fill="#636E72" p-id="2581"></path><path d="M501.2 370.4c-60.4 0-109.3 48.9-109.3 109.3S440.8 589 501.2 589s109.3-48.9 109.3-109.3-49-109.3-109.3-109.3z" fill="#636E72" p-id="2582"></path><path d="M850.9 370.4c-60.4 0-109.3 48.9-109.3 109.3S790.5 589 850.9 589s109.3-48.9 109.3-109.3-48.9-109.3-109.3-109.3z" fill="#636E72" p-id="2583"></path></svg>